<svg xmlns:mydata="http://www.w3.org/2000/svg" mydata:contrastcolor="FF6A13" mydata:template="Contrast" mydata:presentation="2.5" mydata:layouttype="undefined" mydata:specialfontid="undefined" mydata:id1="359" mydata:id2="208" mydata:companyname="Barakat" mydata:companytagline="" version="1.1" xmlns="http://www.w3.org/2000/svg" xmlns:xlink="http://www.w3.org/1999/xlink" viewBox="200 169 200 300"><g fill="#f28123" fill-rule="none" stroke="none" stroke-width="1" stroke-linecap="butt" stroke-linejoin="miter" stroke-miterlimit="10" stroke-dasharray="" stroke-dashoffset="0" font-family="none" font-weight="none" font-size="none" text-anchor="none" style="mix-blend-mode: normal"><g data-paper-data="{&quot;isGlobalGroup&quot;:true,&quot;bounds&quot;:{&quot;x&quot;:65,&quot;y&quot;:187.6953868233265,&quot;width&quot;:420,&quot;height&quot;:94.60922635334708}}"><g data-paper-data="{&quot;isPrimaryText&quot;:true}" fill-rule="nonzero"><path d="M205.94576,245.70827h6.71265c2.131,0 3.94235,1.7048 3.94235,3.94235v7.35194c0,2.23755 -1.81135,3.94235 -3.94235,3.94235h-6.71265zM219.58415,234.73363l7.35194,-7.67159c0.74585,-0.8524 1.38515,-2.87685 1.38515,-4.36855v-12.46634c-0.10655,-6.92574 -5.7537,-12.57289 -12.67944,-12.57289c-6.28645,0 -12.57289,0 -18.85934,0c-1.38515,0 -2.5572,1.0655 -2.5572,2.45065v69.68365c0,1.38515 1.17205,2.5572 2.5572,2.5572c6.6061,0 13.31874,0 19.92484,0c6.393,0 11.61394,-5.22095 11.61394,-11.50739v-15.02354c0,-5.3275 -3.72925,-9.80259 -8.73709,-11.08119zM216.9204,222.16073l-10.97464,11.50739v-24.71958h9.69604c0.6393,0 1.2786,0.6393 1.2786,1.2786z" data-paper-data="{&quot;glyphName&quot;:&quot;B&quot;,&quot;glyphIndex&quot;:0,&quot;firstGlyphOfWord&quot;:true,&quot;word&quot;:1}"></path><path d="M249.31158,197.7608v0c-1.38515,0 -2.66375,1.17205 -2.87685,2.5572c-3.8358,23.22788 -7.67159,46.34922 -11.61394,69.47055c-0.2131,1.38515 0.74585,2.5572 2.131,2.5572c2.23755,0 4.4751,0 6.71265,0c1.38515,0 2.7703,-1.17205 2.9834,-2.5572l1.17205,-7.77814l14.17114,-13.21219l3.51615,20.99033c0.2131,1.38515 1.59825,2.5572 2.9834,2.5572c2.23755,0 4.262,0 6.6061,0c1.38515,0 2.3441,-1.17205 2.02445,-2.5572c-3.8358,-23.12133 -7.56504,-46.24267 -11.50739,-69.47055c-0.2131,-1.38515 -1.4917,-2.5572 -2.87685,-2.5572c-4.4751,0 -8.95019,0 -13.42529,0zM256.02422,212.89089l4.0489,24.61303l-9.69604,9.16329z" data-paper-data="{&quot;glyphName&quot;:&quot;A&quot;,&quot;glyphIndex&quot;:1,&quot;word&quot;:1}"></path><path d="M317.61007,222.80003v-12.46634c-0.10655,-6.81919 -5.7537,-12.46634 -12.57289,-12.46634c-6.28645,0 -12.57289,0 -18.96589,0c-1.2786,0 -2.45065,1.0655 -2.45065,2.45065v69.47055c0,1.38515 1.17205,2.5572 2.45065,2.5572h6.71265c1.38515,0 2.5572,-1.17205 2.5572,-2.5572v-23.97373h6.6061c2.23755,0 4.0489,1.7048 4.0489,3.8358v20.24448c0,1.2786 1.0655,2.45065 2.45065,2.45065h6.6061c1.38515,0 2.5572,-1.17205 2.5572,-2.45065v-23.97373c0,-5.3275 -3.72925,-9.80259 -8.73709,-11.08119l7.35194,-7.67159c0.74585,-0.8524 1.38515,-2.7703 1.38515,-4.36855zM306.20923,222.26728l-10.86809,11.50739v-24.61303h9.69604c0.6393,0 1.17205,0.6393 1.17205,1.2786z" data-paper-data="{&quot;glyphName&quot;:&quot;R&quot;,&quot;glyphIndex&quot;:2,&quot;word&quot;:1}"></path><path d="M339.55936,197.7608v0c-1.38515,0 -2.66375,1.17205 -2.87685,2.5572c-3.8358,23.22788 -7.67159,46.34922 -11.61394,69.47055c-0.2131,1.38515 0.74585,2.5572 2.131,2.5572c2.23755,0 4.4751,0 6.71265,0c1.38515,0 2.7703,-1.17205 2.9834,-2.5572l1.17205,-7.77814l14.17114,-13.21219l3.51615,20.99033c0.2131,1.38515 1.59825,2.5572 2.9834,2.5572c2.23755,0 4.262,0 6.6061,0c1.38515,0 2.3441,-1.17205 2.02445,-2.5572c-3.8358,-23.12133 -7.56504,-46.24267 -11.50739,-69.47055c-0.2131,-1.38515 -1.4917,-2.5572 -2.87685,-2.5572c-4.4751,0 -8.95019,0 -13.42529,0zM346.272,212.89089l4.0489,24.61303l-9.69604,9.16329z" data-paper-data="{&quot;glyphName&quot;:&quot;A&quot;,&quot;glyphIndex&quot;:3,&quot;word&quot;:1}"></path><path d="M376.42563,197.7608v0c-1.38515,0 -2.5572,1.17205 -2.5572,2.5572v69.47055c0,1.38515 1.17205,2.5572 2.5572,2.5572h6.6061c1.38515,0 2.5572,-1.17205 2.5572,-2.5572v-28.87503h2.45065l8.09779,28.87503c0.4262,1.38515 2.02445,2.5572 3.4096,2.5572h6.71265c1.2786,0 2.02445,-1.17205 1.59825,-2.5572l-10.12224,-34.94837l8.95019,-34.52217c0.31965,-1.4917 -0.4262,-2.5572 -1.81135,-2.5572h-3.30305h-3.30305c-1.38515,0 -2.9834,1.0655 -3.30305,2.5572l-7.24539,28.87503h-2.131v-28.87503c0,-1.38515 -1.17205,-2.5572 -2.5572,-2.5572z" data-paper-data="{&quot;glyphName&quot;:&quot;K&quot;,&quot;glyphIndex&quot;:4,&quot;word&quot;:1}"></path><path d="M427.99579,197.7608v0c-1.38515,0 -2.66375,1.17205 -2.87685,2.5572c-3.8358,23.22788 -7.67159,46.34922 -11.61394,69.47055c-0.2131,1.38515 0.74585,2.5572 2.131,2.5572c2.23755,0 4.4751,0 6.71265,0c1.38515,0 2.7703,-1.17205 2.9834,-2.5572l1.17205,-7.77814l14.17114,-13.21219l3.51615,20.99033c0.2131,1.38515 1.59825,2.5572 2.9834,2.5572c2.23755,0 4.262,0 6.6061,0c1.38515,0 2.3441,-1.17205 2.02445,-2.5572c-3.8358,-23.12133 -7.56504,-46.24267 -11.50739,-69.47055c-0.2131,-1.38515 -1.4917,-2.5572 -2.87685,-2.5572c-4.4751,0 -8.95019,0 -13.42529,0zM434.70844,212.89089l4.0489,24.61303l-9.69604,9.16329z" data-paper-data="{&quot;glyphName&quot;:&quot;A&quot;,&quot;glyphIndex&quot;:5,&quot;word&quot;:1}"></path><path d="M482.4428,197.7608v0c-9.26984,0 -18.32659,0 -27.59643,0c-1.38515,0 -2.5572,1.0655 -2.5572,2.45065v6.71265c0,1.4917 1.17205,2.5572 2.5572,2.5572h7.99124v60.30726c0,1.38515 1.0655,2.5572 2.5572,2.5572h6.49955c1.4917,0 2.5572,-1.17205 2.5572,-2.5572v-60.30726h7.99124c1.38515,0 2.5572,-1.0655 2.5572,-2.5572v-6.71265c0,-1.38515 -1.17205,-2.45065 -2.5572,-2.45065z" data-paper-data="{&quot;glyphName&quot;:&quot;T&quot;,&quot;glyphIndex&quot;:6,&quot;lastGlyphOfWord&quot;:true,&quot;word&quot;:1}"></path></g><g data-paper-data="{&quot;isIcon&quot;:&quot;true&quot;,&quot;iconType&quot;:&quot;icon&quot;,&quot;rawIconId&quot;:&quot;1954281&quot;,&quot;selectedEffects&quot;:{&quot;container&quot;:&quot;&quot;,&quot;transformation&quot;:&quot;&quot;,&quot;pattern&quot;:&quot;&quot;},&quot;isDetailed&quot;:false,&quot;fillRule&quot;:&quot;evenodd&quot;,&quot;bounds&quot;:{&quot;x&quot;:65,&quot;y&quot;:187.6953868233265,&quot;width&quot;:150.60922635334705,&quot;height&quot;:80.60922635334708},&quot;iconStyle&quot;:&quot;standalone&quot;,&quot;suitableAsStandaloneIcon&quot;:true}" fill-rule="evenodd"><path d="M65,235c0,-26.08357 21.22105,-47.30461 47.30461,-47.30461c26.08357,0 47.30461,21.22105 47.30461,47.30461c0,26.08357 -21.22105,47.30461 -47.30461,47.30461c-26.08357,0 -47.30461,-21.22105 -47.30461,-47.30461zM135.96973,198.69273c-6.80989,-4.45452 -14.93742,-7.05528 -23.66512,-7.05528c-23.23248,0 -42.25189,18.367 -43.31131,41.34226c21.59357,-0.50951 41.82221,-9.13373 57.1489,-24.45944zM135.99733,218.3744l10.27791,-10.27693c-2.07746,-2.61851 -4.44959,-4.99064 -7.0681,-7.0681l-10.27791,10.27693c-16.07273,16.07273 -37.29279,25.10594 -59.93889,25.61545c0.08968,2.0272 0.32424,4.01596 0.68296,5.96235h7.15384c22.35143,0 43.36453,-8.70405 59.17019,-24.5097zM86.68227,252.73923c22.35143,0 43.36453,-8.70405 59.17019,-24.5097l7.41795,-7.41795c-1.16882,-3.36651 -2.73973,-6.5438 -4.65852,-9.47768l-9.82753,9.82753c-16.54972,16.54972 -38.55326,25.66473 -61.95722,25.66473h-6.23238c0.5785,2.03607 1.30088,4.01005 2.15729,5.91308zM155.53216,238.25219c0.08081,-1.0752 0.13502,-2.15729 0.13502,-3.25219c0,-3.39411 -0.40406,-6.6936 -1.14516,-9.86498l-5.88253,5.88154c-16.54972,16.54972 -38.55326,25.66473 -61.95722,25.66473h-11.90696c1.20922,2.08436 2.57712,4.06622 4.10466,5.91308h17.65743c22.27062,0 43.20882,-8.6459 58.99477,-24.34216zM82.58943,266.53641c7.76781,7.32335 18.22213,11.82615 29.71518,11.82615c20.64058,0 37.94717,-14.50084 42.29821,-33.84743c-16.03429,14.22982 -36.44722,22.02128 -58.06543,22.02128z" data-paper-data="{&quot;isPathIcon&quot;:true}"></path></g></g></g></svg>